<?xml version="1.0" encoding="UTF-8" standalone="no"?>
<!-- Created with Inkscape (http://www.inkscape.org/) -->

<svg
   version="1.1"
   id="svg1"
   width="1600"
   height="1600"
   viewBox="0 0 1600 1600"
   sodipodi:docname="logo em branco.svg"
   inkscape:version="1.3.2 (091e20e, 2023-11-25, custom)"
   xmlns:inkscape="http://www.inkscape.org/namespaces/inkscape"
   xmlns:sodipodi="http://sodipodi.sourceforge.net/DTD/sodipodi-0.dtd"
   xmlns="http://www.w3.org/2000/svg"
   xmlns:svg="http://www.w3.org/2000/svg">
  <defs
     id="defs1" />
  <sodipodi:namedview
     id="namedview1"
     pagecolor="#ffffff"
     bordercolor="#000000"
     borderopacity="0.25"
     inkscape:showpageshadow="2"
     inkscape:pageopacity="0.0"
     inkscape:pagecheckerboard="0"
     inkscape:deskcolor="#d1d1d1"
     inkscape:zoom="0.16794594"
     inkscape:cx="92.291604"
     inkscape:cy="1015.2076"
     inkscape:window-width="1280"
     inkscape:window-height="961"
     inkscape:window-x="-8"
     inkscape:window-y="-8"
     inkscape:window-maximized="1"
     inkscape:current-layer="g1" />
  <g
     inkscape:groupmode="layer"
     inkscape:label="Image"
     id="g1">
    <ellipse
       style="fill:#000000;stroke:#ffffff;stroke-width:3.05653"
       id="path2"
       cx="766.94592"
       cy="779.23608"
       rx="648.56891"
       ry="650.30188" />
    <path
       style="fill:#ffffff;stroke-width:0.984981"
       d="m 746.56217,1430.9753 c -42.7076,-1.3959 -79.6299,-5.7989 -119.7184,-14.2763 -10.5303,-2.2268 -15.4729,-3.4329 -34.882,-8.5126 -16.5802,-4.3394 -51.3236,-15.8745 -62.6599,-20.8037 -1.5387,-0.669 -6.6734,-2.7457 -11.4105,-4.615 -45.6617,-18.0179 -104.7795,-51.8039 -144.4597,-82.559 -3.4457,-2.6708 -9.3964,-7.2819 -13.2238,-10.247 -3.8274,-2.9652 -9.6411,-7.7551 -12.9193,-10.6442 -3.2782,-2.889 -9.8361,-8.6238 -14.5732,-12.7439 -18.6536,-16.2239 -39.5514,-37.7605 -63.8891,-65.8416 -13.6334,-15.7305 -32.0833,-40.4977 -46.0482,-61.8156 -13.197,-20.1456 -37.798,-63.2303 -36.7226,-64.314 0.2245,-0.2263 3.2776,0.524 6.7846,1.6672 30.777,10.0336 88.9453,22.6048 121.3577,26.2278 7.8828,0.8811 10.3433,1.1647 21.1015,2.4328 17.5971,2.0742 49.4957,4.2689 77.0678,5.3025 18.8439,0.7065 64.6547,0.012 83.5616,-1.2677 7.3424,-0.4967 20.2853,-1.3313 28.7619,-1.8547 15.9848,-0.9868 29.5884,-2.198 41.4327,-3.6887 3.7897,-0.477 11.735,-1.2936 17.6563,-1.8147 5.9214,-0.5213 16.1922,-1.7186 22.8241,-2.6608 6.6318,-0.9422 14.7439,-1.9837 18.0267,-2.3144 3.2829,-0.3306 6.7711,-0.7339 7.7516,-0.8962 0.9805,-0.1622 6.0461,-0.9189 11.2569,-1.6814 5.2107,-0.7625 14.9002,-2.2298 21.532,-3.2609 6.6319,-1.0309 17.3311,-2.6316 23.7761,-3.5571 6.4449,-0.9255 13.4213,-2.068 15.5031,-2.5389 2.0818,-0.471 7.0794,-1.3031 11.1059,-1.8491 4.0265,-0.5461 11.3905,-1.7601 16.3644,-2.6977 14.0072,-2.6406 34.9758,-6.3255 43.0642,-7.568 4.0265,-0.6185 10.4215,-1.7461 14.2112,-2.5059 3.7896,-0.7598 14.8356,-2.8207 24.5466,-4.5798 9.7109,-1.7591 20.7177,-3.8141 24.4595,-4.5667 3.7417,-0.7526 10.1368,-1.9193 14.2112,-2.5928 4.0743,-0.6733 13.803,-2.4004 21.6191,-3.8378 36.3543,-6.6855 53.277,-9.7482 56.8447,-10.2879 2.1317,-0.3225 7.9454,-1.3452 12.9193,-2.2728 4.9739,-0.9275 12.9193,-2.3264 17.6564,-3.1087 27.2254,-4.4957 42.30983,-6.922 49.95443,-8.0355 4.7371,-0.6899 14.0389,-2.0554 20.6708,-3.0343 52.2376,-7.7107 86.1815,-11.1966 142.9731,-14.6827 36.4264,-2.236 98.007,-0.044 128.3313,4.5688 6.1581,0.9368 13.7159,2.0672 16.795,2.5123 11.2705,1.6295 43.4821,8.9062 44.9736,10.1598 0.5886,0.4947 -6.817,17.5584 -14.8652,34.2518 -6.0183,12.4831 -21.674,40.9346 -28.8324,52.3982 -6.073,9.7254 -10.4935,16.6372 -13.5768,21.2285 -1.9204,2.8598 -5.0378,7.5393 -6.9275,10.399 -3.395,5.1379 -20.2827,28.1996 -21.2654,29.0401 -0.2794,0.2388 -3.4249,4.1411 -6.9901,8.6718 -18.0303,22.9129 -47.5326,54.061 -72.6653,76.7189 -15.0585,13.5759 -37.0299,31.7569 -47.2104,39.0662 -12.1448,8.7194 -18.8363,13.4331 -24.3703,17.1666 -9.1583,6.1786 -17.7759,11.7393 -20.0917,12.9647 -1.1545,0.6108 -2.511,1.4627 -3.0145,1.8932 -2.7729,2.3702 -38.2037,22.3554 -48.7168,27.4794 -20.0294,9.762 -28.8557,13.8032 -40.911,18.7309 -4.737,1.9364 -9.7755,4.045 -11.1967,4.6857 -10.39183,4.6855 -42.96423,15.8614 -60.28993,20.6861 -3.3159,0.9233 -8.742,2.4589 -12.0579,3.4123 -32.6427,9.3857 -86.017,18.2736 -123.3774,20.5446 -15.0077,0.9124 -51.2011,1.6794 -62.2293,1.3189 z m -112.8281,-373.6884 c -37.7086,-1.1794 -94.76,-7.0571 -136.5135,-14.0643 -21.5816,-3.6219 -39.503,-7.1115 -51.677,-10.0628 -3.7896,-0.9186 -8.6344,-1.998 -10.766,-2.3983 -20.4892,-3.8488 -72.5385,-19.1216 -109.8137,-32.2226 -48.3724,-17.00146 -111.8982,-46.4909 -155.7018,-72.27868 -3.6849,-2.16934 -6.9427,-3.94303 -7.2396,-3.94158 -0.297,0 -1.8102,-0.96272 -3.3629,-2.14266 -1.5526,-1.17994 -3.0529,-2.14431 -3.334,-2.14285 -0.281,0 -3.7874,-2.02187 -7.79185,-4.49604 -6.04487,-3.73484 -14.53124,-8.90225 -19.07558,-11.61518 -2.25898,-1.34866 -8.309,-43.65417 -10.20702,-71.37378 -1.39545,-20.38005 -1.3583,-76.89463 0.0639,-97.16971 2.98696,-42.58308 10.95839,-87.21325 23.39271,-130.97055 4.19252,-14.75373 6.0832,-20.72068 12.74614,-40.22639 2.5896,-7.58114 12.927,-33.69364 16.1024,-40.67482 1.4076,-3.0948 3.0712,-6.79548 3.6968,-8.22369 6.4635,-14.75559 23.3596,-48.00944 28.3774,-55.85088 1.0674,-1.66795 4.7934,-7.90519 8.2801,-13.86058 3.4867,-5.9554 6.6553,-11.21818 7.0412,-11.69513 0.386,-0.47694 4.2844,-6.3264 8.663,-12.99876 4.3787,-6.67237 9.6719,-14.4721 11.7627,-17.33279 9.133,-12.49543 10.8165,-14.7614 11.2712,-15.17101 0.2652,-0.23877 2.972,-3.74832 6.0151,-7.79886 3.0432,-4.05053 7.2843,-9.35144 9.4248,-11.77972 2.1405,-2.42838 7.7677,-9.06572 12.5047,-14.74966 20.2348,-24.27982 55.882,-58.54364 84.6755,-81.3898 4.115,-3.26507 8.4508,-6.7723 9.6351,-7.79391 1.1842,-1.0216 5.8352,-4.49623 10.3354,-7.72133 4.5002,-3.22519 8.7084,-6.32504 9.3516,-6.88852 0.6432,-0.56359 6.6507,-4.67417 13.3499,-9.1348 6.6993,-4.46054 12.568,-8.43113 13.0417,-8.82347 0.4738,-0.39234 5.7061,-3.59813 11.6274,-7.12399 5.9213,-3.52586 12.1225,-7.29319 13.7805,-8.37175 8.0215,-5.21834 38.9802,-21.2114 56.7117,-29.29694 2.2048,-1.00541 5.9467,-2.71507 8.3152,-3.79935 6.1606,-2.82024 32.5672,-13.42138 39.1884,-15.73256 19.4177,-6.77792 25.3584,-8.70336 40.0497,-12.98043 44.5099,-12.95811 88.0306,-20.90774 132.6377,-24.22781 21.8945,-1.62963 72.2603,-1.83016 95.1718,-0.37906 45.6826,2.89349 98.321,12.59314 142.9732,26.34554 18.619,5.73449 22.8659,7.12273 23.6853,7.74249 0.4737,0.35829 1.9418,0.90508 3.2625,1.21516 2.9392,0.69009 38.77293,14.61247 41.87703,16.27033 1.2271,0.65546 5.1379,2.44468 8.6907,3.97622 11.3558,4.89508 45.7002,22.50834 57.2754,29.3732 6.1581,3.65217 12.2998,7.27446 13.648,8.04955 1.3483,0.77508 5.4442,3.38847 9.102,5.80744 3.6578,2.41897 7.8472,5.01276 9.3097,5.76398 1.4625,0.75112 3.1802,1.88119 3.8173,2.51114 0.637,0.63004 4.4526,3.34996 8.4791,6.04436 35.3279,23.64066 80.3875,63.11593 110.4564,96.76756 21.2928,23.82984 19.755,21.99367 36.379,43.4383 31.7213,40.91989 65.5012,99.82986 83.9586,146.41846 1.5026,3.79304 3.2803,8.15617 3.9503,9.69595 5.2208,11.99879 17.6042,49.10313 21.5127,64.45877 0.6038,2.3722 2.1297,8.19488 3.3908,12.9391 8.5432,32.13872 16.5658,82.81238 18.6039,117.50852 1.104,18.79486 1.1066,67.43617 0,86.10578 -2.1866,37.04486 -11.4271,94.22092 -19.8595,122.88103 -0.8399,2.85448 -1.7889,6.35725 -2.109,7.78401 -0.3201,1.42675 -0.9728,4.08972 -1.4504,5.91785 l -0.8684,3.32367 -4.0363,-0.45793 c -11.884,-1.34817 -38.8641,-2.14528 -54.4213,-1.6078 -19.9446,0.68903 -29.3698,1.51767 -53.3996,4.69445 -21.3222,2.81869 -48.2534,7.6931 -76.2236,13.79598 -17.3728,3.79052 -22.1646,4.94805 -83.479,20.1635 -15.8883,3.94274 -47.8448,11.66093 -69.3989,16.76153 -7.9499,1.8814 -25.3051,5.7053 -30.1449,6.6421 -1.658,0.321 -7.0841,1.5082 -12.058,2.6383 -8.47393,1.9255 -14.88903,3.208 -43.92543,8.7819 -23.8441,4.577 -63.4175,11.2146 -74.9318,12.5681 -2.6053,0.3063 -5.706,0.7021 -6.8902,0.8796 -18.9113,2.8361 -21.038,3.1038 -56.8447,7.1541 -20.6869,2.3401 -58.458,5.1863 -80.5301,6.0683 -24.725,0.9882 -86.8121,1.2579 -111.5362,0.4848 z m 42.2029,-169.47783 c 0,-1.42394 -12.8391,-14.42368 -19.8095,-20.05736 -3.5528,-2.87146 -6.6535,-5.45827 -6.8903,-5.74855 -0.2369,-0.29019 -3.5313,-2.73836 -7.3209,-5.44043 -6.3112,-4.50002 -10.705,-7.4391 -23.5068,-15.72431 -12.2981,-7.95932 -32.4213,-15.54754 -51.8555,-19.55422 -11.3384,-2.33757 -12.2802,-2.39317 -37.8965,-2.23881 -16.0818,0.097 -28.7743,0.57164 -32.7288,1.22418 -3.5528,0.58629 -11.6919,1.86684 -18.087,2.84566 -10.2626,1.57083 -23.2468,4.185 -48.2318,9.71109 -7.0616,1.56181 -14.7855,3.5017 -28.4224,7.13835 -54.959,14.65623 -96.5169,22.21739 -114.5507,20.84186 -15.2676,-1.16462 -30.1531,-5.55413 -39.9216,-11.77235 -15.0065,-9.55257 -23.7734,-26.47982 -25.941,-50.08739 -0.8548,-9.30972 2.079,-30.36385 6.094,-43.73284 4.2053,-14.00233 10.684,-32.0712 13.2907,-37.06708 0.3884,-0.74452 3.0941,-6.22269 6.0125,-12.17372 13.7898,-28.11943 26.3237,-47.62039 50.7704,-78.99188 13.194,-16.93133 47.8648,-51.67713 62.4734,-62.60853 20.8276,-15.58489 39.0812,-24.13399 51.6427,-24.18677 8.1327,-0.034 13.7117,5.83869 12.0315,12.66512 -0.7827,3.17989 -0.9099,3.26633 -5.7303,3.89191 -5.9682,0.7745 -9.1253,2.34348 -14.194,7.05394 -5.295,4.92079 -8.1603,10.90296 -8.6787,18.11941 -0.7075,9.84876 2.5913,14.47782 10.29,14.43979 6.1357,-0.0301 9.7134,-1.92194 16.1775,-8.55308 6.2715,-6.4336 12.7943,-17.57601 15.2501,-26.0506 1.7333,-5.9814 1.7405,-14.72026 0.017,-20.21773 -2.3764,-7.57814 -9.9279,-15.34449 -17.8724,-18.38059 -5.3914,-2.06049 -21.9481,-1.96958 -32.2332,0.17696 -38.4508,8.02481 -82.6875,35.80215 -124.9108,78.43461 -22.9573,23.17972 -44.6893,50.94609 -56.6545,72.38558 -1.4828,2.65696 -2.9985,5.22107 -3.3683,5.69792 -0.3697,0.47694 -2.0675,3.59473 -3.7728,6.92849 -1.7053,3.33376 -4.0127,7.81506 -5.1276,9.9583 -3.3854,6.50792 -9.4282,21.52419 -12.712,31.58891 -6.9276,21.23246 -9.9749,38.26031 -10.6753,59.65003 -0.5431,16.58846 1.4699,30.56634 6.1483,42.69145 2.5783,6.68227 9.0463,18.09245 12.2245,21.56543 12.763,13.94634 24.6782,21.43221 41.5544,26.10716 11.9884,3.32095 20.2944,4.11417 36.2837,3.46541 20.0975,-0.81554 34.8882,-3.54186 78.3769,-14.44658 42.129,-10.56388 48.6067,-12.00898 68.7427,-15.33623 19.1751,-3.16844 42.9268,-4.43628 57.082,-3.04697 21.3035,2.09085 40.3139,9.44205 52.7203,20.38645 5.1047,4.50322 12.2583,13.07376 13.0826,15.67386 0.5366,1.69298 3.8837,2.52317 3.8837,0.9633 0,-1.76885 8.3204,-9.89213 14.204,-13.86757 3.4832,-2.35358 9.5607,-5.40598 13.5055,-6.78316 6.9614,-2.43032 7.6669,-2.50483 23.9676,-2.53093 14.799,-0.0242 18.0234,0.23644 27.1304,2.18923 15.5731,3.33929 27.5635,7.4913 40.4803,14.01746 3.316,1.67542 6.1582,3.38033 6.3161,3.78878 0.1579,0.40845 0.6435,0.74083 1.0792,0.7387 0.4356,0 2.6319,1.14559 4.8806,2.55062 4.4105,2.75572 5.3805,3.06356 5.3805,1.70772 z m 500.27843,-13.62909 c 15.4644,-7.90509 30.5993,-21.05821 51.0518,-44.36716 10.5171,-11.98589 32.6201,-42.38991 32.6201,-44.87078 0,-0.75898 -1.9851,-1.05838 -6.8581,-1.03422 l -6.8582,0.034 -3.6279,5.41617 c -1.9954,2.97896 -3.8841,5.61195 -4.1973,5.851 -0.3131,0.23906 -2.6668,3.36015 -5.2304,6.93568 -6.4329,8.97229 -19.4281,23.5904 -27.0092,30.38219 -6.8987,6.18058 -15.3511,10.53789 -17.085,8.80766 -2.345,-2.3401 1.1043,-9.61815 17.4873,-36.89895 3.7197,-6.19406 8.3243,-13.99039 10.2323,-17.32512 1.9081,-3.33482 5.0182,-8.59732 6.9113,-11.69454 1.8932,-3.09723 4.635,-7.77489 6.0929,-10.39488 1.458,-2.61999 4.183,-7.29756 6.0556,-10.39469 1.8727,-3.09713 4.9746,-8.35962 6.8932,-11.69444 1.9186,-3.33483 3.8478,-6.64811 4.2872,-7.36285 0.4393,-0.71474 2.7968,-4.80757 5.2388,-9.09512 2.442,-4.28745 5.5538,-9.46428 6.9151,-11.5038 1.3612,-2.03963 2.475,-3.94556 2.475,-4.23536 0,-0.28989 1.1627,-2.42779 2.5839,-4.751 4.3467,-7.10595 5.0867,-6.8016 -16.2826,-6.69595 l -18.8664,0.0931 -2.3275,3.99436 -2.3275,3.99446 -3.583,-3.7492 c -6.9176,-7.23856 -9.5516,-8.48564 -17.7585,-8.40851 -5.7189,0.0534 -10.8906,1.1681 -17.2313,3.71281 -5.2753,2.11714 -14.915,7.55688 -15.3596,8.66746 -0.1579,0.39447 -0.6655,0.719 -1.1279,0.72133 -1.3465,0.01 -15.1942,11.98104 -22.6036,19.54569 -8.5979,8.77806 -21.7434,24.45949 -29.4461,35.1266 -3.2705,4.52913 -6.267,8.62507 -6.6587,9.10211 -1.1216,1.36554 -11.2045,16.08163 -21.0802,30.76658 -16.1861,24.06861 -23.7904,33.35737 -31.2883,38.21957 -13.6601,8.8581 -17.4617,-3.75279 -9.2477,-30.67733 1.4514,-4.7577 3.1591,-9.81898 3.7948,-11.24729 0.6357,-1.42831 2.6909,-6.49123 4.567,-11.25107 1.8761,-4.75974 4.9504,-11.96551 6.8317,-16.01275 2.9673,-6.38334 3.9652,-7.69766 7.5297,-9.91735 5.1704,-3.21976 24.3228,-17.20346 28.8101,-21.03512 1.1907,-1.01666 7.0096,-5.86255 12.9309,-10.76859 14.8783,-12.3272 62.5803,-60.63546 75.8329,-76.79664 5.8671,-7.15475 10.9062,-13.20416 11.1978,-13.44311 1.3591,-1.11349 14.6008,-19.36145 14.6008,-20.12082 0,-0.55291 -2.541,-0.62383 -7.1056,-0.1984 -8.1372,0.75839 -6.2904,-0.77741 -20.3566,16.92793 -10.5221,13.24431 -20.7053,24.31377 -43.5477,47.33806 -17.719,17.85999 -31.0523,30.55411 -39.9715,38.05492 -5.5335,4.6537 -19.1955,14.89354 -21.5197,16.12946 l -2.0167,1.07235 2.1161,-3.75404 c 1.1638,-2.06466 4.7552,-8.62545 7.9808,-14.57959 23.6323,-43.62244 60.0213,-97.15728 85.0063,-125.05978 19.003,-21.22207 26.4015,-28.88267 37.8199,-39.15967 11.544,-10.39013 24.5144,-19.61971 27.5931,-19.63485 1.7531,-0.01 3.2852,1.77486 3.2852,3.82438 0,3.03814 -4.1338,14.38235 -8.5301,23.40898 l -4.2169,8.65814 2.6167,0.26661 c 3.7356,0.3806 13.5755,-2.48863 13.5755,-3.95856 0,-0.65788 0.9149,-3.03397 2.0332,-5.28015 4.6174,-9.27479 6.9564,-18.32296 6.9841,-27.01632 0.029,-9.13412 -0.5382,-10.31804 -6.4335,-13.42604 -4.0812,-2.15158 -14.2608,-2.09997 -20.6708,0.10517 -4.7182,1.62293 -17.2675,7.43193 -18.0869,8.37233 -0.2369,0.27185 -3.0067,2.10812 -6.1551,4.08042 -6.3506,3.97844 -19.2629,14.07547 -29.1576,22.80037 -11.1551,9.83624 -42.1918,41.7231 -52.906,54.35504 -5.6498,6.66121 -12.4652,14.64847 -15.1452,17.74958 -10.7137,12.39696 -37.8867,50.29015 -37.8867,52.83369 0,0.41844 -0.2983,0.89189 -0.6629,1.05207 -0.6102,0.26806 -12.0462,18.9855 -16.1951,26.50669 -0.982,1.78029 -3.8654,6.93965 -6.4075,11.46519 -6.7676,12.04778 -13.1979,24.30009 -18.2969,34.86281 -4.878,10.10469 -4.9205,10.14127 -14.8516,12.7666 -3.3824,0.89412 -8.1822,1.25775 -8.1822,0.61975 0,-0.27204 4.0532,-9.52821 6.87,-15.6889 2.2629,-4.94912 5.9633,-19.16974 6.9081,-26.54753 2.1156,-16.52064 -1.3693,-26.35252 -10.9537,-30.90396 -3.4238,-1.62594 -5.4929,-1.94096 -12.29863,-1.87265 -9.1224,0.0912 -13.0737,1.17024 -23.2546,6.34813 -15.6745,7.97193 -31.3077,21.11991 -50.5415,42.50711 -16.9813,18.88256 -32.7358,43.08942 -40.9636,62.9411 -6.1691,14.88452 -9.8556,33.55102 -9.006,45.60162 0.7389,10.47919 1.8898,13.2452 8.0456,19.33749 4.5445,4.4975 5.9773,5.39948 9.3586,5.89127 7.4787,1.08768 16.7438,-0.0466 22.817,-2.79414 5.2141,-2.35862 18.8405,-10.33046 19.8095,-11.58908 0.2369,-0.30765 4.1287,-3.56176 8.6486,-7.2312 9.0413,-7.34034 25.9211,-24.43844 31.893,-32.30549 5.8401,-7.69349 13.591,-19.60575 20.914,-32.1427 l 4.5494,-7.78847 7.14683,-1.05401 c 3.9308,-0.57969 8.1178,-1.30316 9.3045,-1.6078 2.0065,-0.51488 2.1155,-0.3841 1.5565,1.86713 -0.3306,1.33148 -1.1231,3.5895 -1.7612,5.01781 -4.2006,9.40305 -11.2736,34.17698 -12.9013,45.18793 -3.23133,21.8592 -0.1842,34.3362 9.969,40.81967 5.4769,3.49743 15.229,4.39116 22.2004,2.03458 7.463,-2.52278 19.4824,-11.221 30.4274,-22.01967 l 10.1648,-10.02892 v 6.14584 c 0,13.12906 3.4679,20.19824 12.0638,24.59164 4.3338,2.21503 5.3461,2.38598 12.0521,2.03564 6.1398,-0.32074 8.1974,-0.83543 12.7535,-3.18988 6.6727,-3.44833 16.2023,-9.61417 19.1642,-12.39948 1.2119,-1.13968 4.3125,-3.94817 6.8903,-6.24112 l 4.6868,-4.16909 0.5214,6.85157 c 0.8474,11.13503 4.977,17.3646 12.5295,18.9008 5.6775,1.15491 15.0025,-0.32705 20.8424,-3.31222 z M 923.85007,841.22572 c -6.429,-3.46997 -7.4444,-11.29541 -3.2244,-24.84941 2.6931,-8.6498 12.1282,-28.35596 17.0555,-35.62199 1.4684,-2.16536 3.8993,-5.78939 5.402,-8.05333 1.5026,-2.26393 4.8413,-6.97448 7.4192,-10.46793 l 4.687,-6.35172 1.6953,2.78706 c 3.2678,5.3727 14.9266,15.91922 21.7152,19.64367 l 6.5871,3.61395 -1.698,2.76358 c -0.9339,1.51999 -2.2046,3.72804 -2.8237,4.90672 -4.3196,8.22331 -16.6321,24.68526 -26.6586,35.64265 -5.8101,6.34959 -15.2272,13.59368 -20.0595,15.43064 -5.6663,2.1541 -7.0004,2.22755 -10.0971,0.55611 z m 201.07563,-0.97494 c -2.6396,-1.84093 -3.0948,-5.26851 -1.5743,-11.85123 2.3347,-10.10683 10.7834,-27.87911 21.0056,-44.18573 15.2547,-24.33463 35.9016,-49.8395 48.3502,-59.72629 3.5528,-2.8216 6.8716,-5.45993 7.3752,-5.86304 1.945,-1.55666 4.3886,-2.53306 7.7989,-3.11614 2.9902,-0.51119 3.9195,-0.28669 5.922,1.43073 l 2.3752,2.0372 -1.5281,2.98178 c -0.8405,1.6399 -3.1419,5.71052 -5.1144,9.04554 -1.9725,3.33511 -7.0214,11.91099 -11.2198,19.05758 -19.3292,32.90168 -33.366,54.97781 -43.444,68.32584 -14.9256,19.76844 -23.7322,26.19807 -29.9465,21.86376 z M 985.40917,766.55291 c -9.7511,-4.74897 -17.3533,-16.59214 -16.3349,-25.44753 1.2242,-10.64383 11.926,-22.73721 23.3732,-26.41248 5.8575,-1.88061 9.10473,-0.75771 12.26043,4.23972 3.2171,5.09494 3.0201,15.36341 -0.4915,25.61072 -3.6324,10.60007 -10.57983,23.76028 -12.66753,23.99565 -0.9207,0.10381 -3.6836,-0.78993 -6.1397,-1.98608 z m -215.2602,112.13223 c 13.5457,-2.0307 28.8159,-8.08874 42.2427,-16.75892 11.672,-7.5371 25.9866,-20.01429 35.1828,-30.66714 3.2949,-3.81662 7.0857,-8.15122 8.4239,-9.63241 1.3383,-1.48109 5.0749,-6.55235 8.3036,-11.2695 17.5605,-25.65632 27.681,-49.13417 30.9193,-71.7277 2.3969,-16.72313 0.1108,-28.04153 -7.1214,-35.25856 -5.5523,-5.54054 -9.4466,-6.83293 -19.0646,-6.32649 -9.2066,0.4847 -13.5221,1.73916 -23.904,6.94897 -11.0866,5.56344 -22.6035,15.02151 -33.0073,27.10684 -4.0732,4.73151 -11.104,16.3594 -14.491,23.96596 -1.59,3.57077 -3.4322,7.66098 -4.0939,9.08939 -2.2948,4.95426 -6.408,17.35035 -8.6119,25.95446 -2.2687,8.85693 -3.7841,20.3164 -2.686,20.31097 0.5363,0 10.5587,-8.82939 18.1513,-15.98578 3.8136,-3.59464 19.7372,-14.10323 25.8477,-17.05803 l 5.3105,-2.56789 1.9185,-6.72592 c 6.8838,-24.13468 18.5697,-42.27136 31.4418,-48.7983 13.2118,-6.69914 19.6258,-0.61151 17.6818,16.78221 -0.7567,6.77016 -3.1195,15.60711 -6.593,24.65741 -2.4283,6.32708 -9.8095,21.43425 -12.1953,24.9602 -0.8617,1.27337 -2.5495,3.89492 -3.7508,5.82559 -8.1289,13.06445 -28.4059,35.25603 -40.7752,44.62532 -14.0286,10.62608 -24.1646,14.54893 -35.5191,13.74669 -11.2691,-0.79633 -18.7684,-6.03515 -24.1176,-16.84808 l -3.1748,-6.41741 0.035,-14.29648 c 0.035,-14.02261 0.1034,-14.54505 3.582,-27.26993 5.02,-18.36352 7.2418,-25.8165 7.9939,-26.81511 0.359,-0.47685 1.1426,-2.42411 1.7412,-4.32723 3.3502,-10.65111 14.2102,-32.79457 25.6904,-52.38265 4.7479,-8.10126 23.1502,-36.41211 24.2192,-37.26015 0.3014,-0.23895 2.359,-3.06705 4.5726,-6.28458 23.1852,-33.70043 69.0847,-79.97895 99.2543,-100.07406 2.8422,-1.89312 5.3615,-3.64829 5.5983,-3.90025 0.2369,-0.25205 4.0596,-2.55838 8.4949,-5.12521 10.7476,-6.21987 20.8142,-10.3844 27.8477,-11.52049 5.1295,-0.82854 10.5751,-0.71522 11.5323,0.23993 0.1879,0.18754 -3.4337,2.97333 -8.0481,6.19057 -33.1333,23.10133 -55.3183,48.46445 -67.8481,77.56784 -7.377,17.13487 -7.4232,34.31456 -0.1088,40.4639 4.3544,3.66071 8.1514,4.85598 15.2569,4.80272 19.3991,-0.14543 42.7235,-19.17449 63.2045,-51.56507 7.6094,-12.03411 12.5778,-22.45897 16.8955,-35.45075 3.3979,-10.22354 3.6187,-11.50739 4.04223,-23.50017 l 0.448,-12.68578 3.5452,-0.65362 c 1.9499,-0.35945 7.2273,-0.62179 11.7275,-0.58308 10.2151,0.0883 19.561,2.91173 35.7433,10.79945 12.0063,5.85217 12.3127,6.03486 34.4514,20.54634 16.9006,11.07808 28.5657,18.44656 29.1977,18.44345 0.2421,-9.7e-4 1.8528,0.95224 3.5794,2.1187 1.7267,1.16655 4.4726,2.36522 6.1022,2.66375 2.911,0.53321 3.1986,0.29658 16.493,-13.56885 7.4417,-7.7614 13.639,-14.55301 13.7717,-15.09243 0.1327,-0.53952 -1.999,-2.08503 -4.7371,-3.43466 -4.4155,-2.17632 -15.7736,-8.48516 -24.3572,-13.52917 -1.658,-0.97426 -7.2779,-4.28231 -12.4886,-7.3512 -20.3001,-11.95601 -35.7047,-18.75683 -49.5238,-21.86405 -8.2858,-1.86305 -23.1619,-2.41548 -34.962,-1.2984 -9.8349,0.93109 -27.1517,4.8489 -33.69673,7.62373 -2.7905,1.18305 -3.0595,1.11882 -6.9564,-1.66232 -6.7216,-4.79719 -12.4798,-6.04989 -26.8777,-5.84761 -13.7839,0.19375 -18.6963,1.1945 -34.0581,6.93869 -12.7207,4.75663 -41.4885,19.50387 -46.531,23.85331 -0.5062,0.43659 -3.6068,2.4766 -6.8903,4.5333 -3.2835,2.0568 -6.9389,4.59306 -8.1232,5.63621 -1.1842,1.04314 -4.7176,3.71426 -7.852,5.9358 -17.3424,12.29189 -45.4704,39.03704 -64.0645,60.91487 -5.6763,6.67877 -10.5425,12.33865 -10.8139,12.57751 -2.4425,2.15051 -25.6004,34.40469 -32.3622,45.07393 -20.11,31.73095 -31.7895,55.24034 -39.3595,79.2258 -7.4899,23.73156 -10.0083,48.47988 -6.6832,65.67635 6.6939,34.61862 31.3073,52.63665 65.0037,47.58527 z M 913.82957,652.9559 c -4.4146,-1.83957 -5.6343,-4.64516 -5.1402,-11.82309 0.792,-11.50701 11.2033,-30.55877 28.0313,-51.29478 10.8999,-13.43108 27.9848,-28.26127 42.7602,-37.11704 9.3583,-5.60895 9.9252,-4.32966 6.1268,13.82546 -2.2719,10.85892 -5.4728,19.9163 -10.7729,30.48348 -3.1163,6.21328 -10.7911,18.9172 -12.0139,19.88642 -0.3015,0.23905 -2.535,2.97081 -4.9634,6.07066 -8.6016,10.98029 -23.8737,24.36489 -31.9271,27.98117 -6.1006,2.73933 -9.1107,3.23383 -12.1008,1.98772 z M 1279.684,875.37098 c 3.2544,-2.52365 1.6819,-2.85157 -2.1786,-0.45434 -2.5036,1.55473 -2.9502,2.1154 -1.6843,2.11491 0.9474,-8.7e-4 2.6857,-0.74772 3.8629,-1.66057 z m -810.62583,-85.1158 c 4.1204,-1.46838 10.3158,-4.21033 13.7676,-6.09307 6.7303,-3.671 21.7744,-14.24439 26.4192,-18.56813 1.5583,-1.45053 6.5523,-6.07347 11.0978,-10.27322 l 8.2646,-7.63595 -1.2571,3.57931 c -0.6914,1.96861 -1.6958,7.01261 -2.2321,11.20887 -2.3449,18.34779 4.2025,28.92274 18.3736,29.6757 3.0135,0.16018 7.4005,-0.11235 9.7489,-0.60549 5.3455,-1.12261 20.4948,-8.62662 24.51,-12.14073 1.6579,-1.45111 5.5337,-4.89703 8.6128,-7.6576 l 5.5983,-5.01916 0.068,5.25928 c 0.1319,10.15942 3.9964,16.54044 11.5106,19.00617 8.505,2.79084 20.2984,-0.83785 34.1942,-10.5211 10.8646,-7.57086 37.2194,-33.94802 48.9981,-49.03968 4.6526,-5.96112 8.7158,-11.03403 9.0295,-11.27309 0.9407,-0.71706 12.1082,-16.5023 12.6167,-17.83379 0.385,-1.00793 -0.8428,-1.22059 -6.7268,-1.165 l -7.1978,0.0679 -2.5838,3.31921 c -22.1339,28.43377 -44.048,49.53418 -51.4822,49.57095 -2.6272,0.0126 -3.2867,-1.42783 -2.4175,-5.28151 0.8743,-3.87629 2.3899,-6.76085 11.0892,-21.10507 12.9,-21.27068 18.6466,-30.8668 26.4574,-44.18098 4.1926,-7.14649 10.7882,-18.2565 14.6569,-24.68874 3.8688,-6.43235 7.771,-12.96646 8.6716,-14.52022 4.365,-7.53088 12.9307,-21.8428 15.1189,-25.26115 1.3487,-2.10706 2.4523,-4.34741 2.4523,-4.97852 0,-0.92003 -3.7999,-1.12765 -19.1636,-1.04732 l -19.1636,0.10071 -1.5458,2.73078 -1.5459,2.73089 -3.1912,-3.09752 c -6.5632,-6.37044 -14.664,-8.02044 -25.4084,-5.17527 -23.0629,6.10723 -53.0688,33.23979 -85.8739,77.6505 -19.3665,26.21796 -27.1959,35.4654 -44.7095,52.80701 -22.1743,21.95661 -37.8312,28.80118 -47.8742,20.92869 -10.8338,-8.49244 -5.9199,-31.11119 14.5358,-66.90829 6.435,-11.26116 11.7372,-19.74177 13.8926,-22.2205 0.953,-1.09602 3.6552,-4.52864 6.0048,-7.6281 5.5546,-7.32734 18.1643,-20.07706 26.0915,-26.38114 13.3714,-10.63374 22.2876,-12.75631 26.5122,-6.31126 1.725,2.63163 1.0806,8.45819 -0.8542,7.72317 -1.9769,-0.75102 -8.467,1.4125 -12.5472,4.18268 -4.5438,3.0849 -10.6768,11.28551 -11.9889,16.03069 -2.1887,7.91557 -0.6327,13.27954 4.5784,15.7836 4.5115,2.16778 6.8127,2.1673 11.5286,0 5.4805,-2.52162 12.1123,-9.9714 16.696,-18.75547 5.5517,-10.63908 7.0372,-16.26723 6.5749,-24.91015 -0.4024,-7.52409 -2.1243,-11.36089 -7.2665,-16.19155 -5.964,-5.60264 -17.8789,-7.98096 -28.946,-5.77776 -4.8799,0.97145 -17.7446,6.16632 -19.9846,8.06992 -0.4984,0.42349 -3.6192,2.57294 -6.9352,4.77643 -3.3159,2.20349 -6.2228,4.24602 -6.4596,4.53902 -0.2369,0.293 -3.5313,3.26061 -7.3209,6.59466 -3.7897,3.33395 -10.5723,9.4407 -15.0725,13.5703 -19.3937,17.79692 -29.6688,25.18199 -39.9757,28.7321 -4.6021,1.58519 -5.5923,1.51592 -4.2187,-0.29523 0.4608,-0.60763 2.0528,-4.41445 3.5379,-8.45974 6.8114,-18.55358 8.4192,-35.08023 4.2875,-44.07135 -4.4247,-9.62872 -12.3318,-14.15067 -24.3515,-13.92617 -18.612,0.34762 -41.6966,14.10342 -66.3486,39.53621 -49.9045,51.48513 -73.1027,113.27355 -51.0329,135.92636 12.043,12.36116 27.8624,11.11612 50.4064,-3.96709 16.5464,-11.07043 42.572,-37.36755 52.758,-53.30831 2.1284,-3.33095 4.1845,-6.44641 4.5692,-6.92336 0.921,-1.1421 8.8919,-13.53683 13.8164,-21.4846 l 3.906,-6.30409 5.8675,-1.06953 c 3.2272,-0.58832 6.7434,-1.31829 7.814,-1.62235 1.7838,-0.50653 1.6185,0.0534 -1.9776,6.69536 -13.5514,25.03064 -18.7433,41.08492 -18.8481,58.28197 -0.077,12.58062 2.2832,19.67482 8.824,26.5259 11.1834,11.71404 25.3688,14.37575 43.0439,8.07671 z m 105.9321,-35.10565 c -2.1439,-1.65553 -3.1786,-5.11774 -2.6822,-8.97472 1.3816,-10.73454 16.2705,-39.11777 31.1475,-59.37703 28.9888,-39.47663 42.0055,-53.57627 53.1905,-57.61545 5.2611,-1.89992 8.7089,-1.28385 9.4539,1.68919 0.4021,1.60479 -1.032,4.78555 -6.1416,13.62095 -3.6665,6.33998 -7.5111,12.89175 -8.5437,14.55951 -1.0325,1.66775 -5.2972,8.87944 -9.4772,16.02584 -31.5071,53.86762 -50.825,78.83055 -62.4643,80.71707 -1.8585,0.30125 -3.5776,0.0534 -4.4829,-0.64536 z m -228.9625,0.0825 c -10.1623,-3.27729 -9.0305,-19.46807 3.0632,-43.82084 4.6924,-9.44885 14.1609,-25.4487 15.8352,-26.75796 0.3056,-0.23906 2.2221,-3.03902 4.2588,-6.22211 3.9529,-6.17776 6.8625,-9.88039 7.3118,-9.30477 0.1516,0.19413 1.0925,1.70937 2.0909,3.36703 0.9985,1.65776 3.1005,4.2207 4.6713,5.69539 3.1737,2.97954 13.4566,9.74563 14.8699,9.78444 0.498,0.0136 2.4557,0.76809 4.3505,1.67658 1.8948,0.90848 4.1234,1.66164 4.9524,1.67367 0.829,0.0116 1.5072,0.15406 1.5072,0.3157 0,2.23793 -19.702,31.49277 -26.6193,39.52601 -8.1549,9.47049 -15.7519,16.49474 -21.8076,20.16341 -6.9422,4.20576 -10.5402,5.17537 -14.4843,3.90345 z m 62.7874,-77.97891 c -12.0945,-4.0743 -18.8258,-11.6339 -18.8237,-21.1399 0,-4.61295 4.4941,-13.33639 9.4324,-18.31316 4.9433,-4.98172 13.6161,-9.52549 18.2272,-9.54926 9.8096,-0.0505 13.2643,13.26935 7.7467,29.86819 -3.4459,10.36606 -8.4167,21.09934 -9.7621,21.07868 -0.6041,-0.01 -3.6733,-0.88433 -6.8205,-1.94455 z m 357.3114,-43.81696 c 3.9097,-6.43254 8.2692,-13.64462 9.6878,-16.02692 l 2.5792,-4.3314 -17.3997,-0.14834 c -9.5698,-0.0815 -17.8411,0.0233 -18.3807,0.23401 -0.5395,0.21034 -3.7622,4.99588 -7.1615,10.63461 -3.3993,5.63873 -7.7161,12.72808 -9.593,15.7541 -1.8768,3.02601 -3.4124,5.66492 -3.4124,5.8642 0,0.19928 8.2287,0.21674 18.2859,0.0388 l 18.2859,-0.32356 z m 450.26593,-19.59168 c 29.8952,-5.3141 60.263,-22.37679 86.3987,-48.54478 13.1616,-13.17776 16.9053,-17.68166 25.7271,-30.95111 4.5935,-6.90939 6.1819,-9.61873 9.0149,-15.37582 1.4672,-2.98178 -1.0352,-1.46043 -7.2333,4.39727 -12.4606,11.77643 -14.715,13.72951 -22.4738,19.4705 -22.2631,16.4733 -47.4959,28.91333 -70.5541,34.78384 -8.8349,2.24938 -12.88,2.77745 -24.9548,3.25808 l -14.4107,0.57368 -8.2052,8.91417 c -10.979,11.92739 -18.5262,21.09683 -18.5262,22.50826 0,1.11649 2.4623,1.5783 12.9193,2.42294 6.041,0.48801 26.565,-0.43794 32.2981,-1.45703 z"
       id="path3" />
  </g>
</svg>
