<?xml version="1.0" encoding="UTF-8" standalone="no"?>
<!-- Created with Inkscape (http://www.inkscape.org/) -->

<svg
   width="800mm"
   height="600mm"
   viewBox="0 0 800 600"
   version="1.1"
   id="svg1"
   xml:space="preserve"
   inkscape:version="1.3.2 (091e20e, 2023-11-25, custom)"
   sodipodi:docname="logofooter.svg"
   xmlns:inkscape="http://www.inkscape.org/namespaces/inkscape"
   xmlns:sodipodi="http://sodipodi.sourceforge.net/DTD/sodipodi-0.dtd"
   xmlns="http://www.w3.org/2000/svg"
   xmlns:svg="http://www.w3.org/2000/svg"><sodipodi:namedview
     id="namedview1"
     pagecolor="#ffffff"
     bordercolor="#999999"
     borderopacity="1"
     inkscape:showpageshadow="2"
     inkscape:pageopacity="0"
     inkscape:pagecheckerboard="0"
     inkscape:deskcolor="#d1d1d1"
     inkscape:document-units="mm"
     inkscape:zoom="0.37014941"
     inkscape:cx="1529.1123"
     inkscape:cy="1084.6971"
     inkscape:window-width="1920"
     inkscape:window-height="1009"
     inkscape:window-x="-8"
     inkscape:window-y="-8"
     inkscape:window-maximized="1"
     inkscape:current-layer="layer1" /><defs
     id="defs1" /><g
     inkscape:label="Camada 1"
     inkscape:groupmode="layer"
     id="layer1"><path
       style="fill:#000000;stroke-width:0.211561"
       d="m 394.29629,373.07423 c -4.71987,-0.26767 -9.01625,-0.97778 -13.47257,-2.22678 -15.26569,-4.2786 -28.29734,-14.45329 -35.96719,-28.08201 -0.58119,-1.03274 -0.9688,-1.76378 -0.93517,-1.76378 0.0114,0 0.44019,0.14589 0.95289,0.32421 8.79424,3.05858 19.63334,4.28322 31.25966,3.53184 5.5989,-0.36184 11.59238,-1.08793 19.35615,-2.34492 2.53491,-0.41042 4.55404,-0.75332 10.51656,-1.78601 9.9493,-1.72318 13.64881,-2.30252 18.47503,-2.89318 10.12497,-1.23916 17.79136,-1.25487 24.15966,-0.0495 1.36317,0.25801 3.62342,0.80367 3.74086,0.90311 0.0871,0.0737 -1.10318,2.43384 -2.22286,4.40779 -5.86817,10.34521 -15.18744,18.93798 -26.18928,24.14764 -7.34872,3.47982 -14.89175,5.37402 -23.24221,5.83657 -1.16978,0.0648 -5.25701,0.0616 -6.43153,-0.005 z m -7.21948,-32.40915 c -15.05272,-0.58461 -28.51983,-4.15029 -40.9293,-10.83682 -0.53152,-0.28639 -2.46647,-1.39297 -4.29989,-2.45907 l -3.3335,-1.93835 -0.17692,-1.0748 c -0.93979,-5.70933 -1.04367,-11.28536 -0.3145,-16.88177 1.42255,-10.91814 6.03697,-21.24625 13.29091,-29.74803 6.89931,-8.08616 15.83261,-14.17434 26.01407,-17.72899 5.44922,-1.90249 11.03967,-2.98752 17.13124,-3.32495 1.31251,-0.0727 4.93192,-0.0721 6.31784,10e-4 14.68408,0.7748 28.32686,6.58561 38.81728,16.53327 9.06442,8.59545 15.08017,19.69878 17.20097,31.74795 0.35646,2.02522 0.54781,3.55355 0.71421,5.70471 0.12017,1.55372 0.11901,6.89163 -0.002,8.46061 -0.27999,3.63469 -0.83165,6.8945 -1.75828,10.38973 -0.29001,1.09395 -0.86085,3.00072 -0.91368,3.05194 -0.0133,0.013 -0.21021,-0.007 -0.43744,-0.0434 -3.67451,-0.59559 -8.33974,-0.36131 -14.25517,0.71587 -2.67551,0.4872 -4.29878,0.84051 -9.35122,2.03529 -1.90719,0.45101 -4.08156,0.95969 -4.83193,1.13041 -11.37032,2.58679 -20.74798,3.90879 -30.29906,4.27133 -1.64396,0.0624 -6.9181,0.0587 -8.58378,-0.006 z m 2.53464,-17.79146 c -0.80461,-0.9318 -2.65051,-2.36867 -4.51757,-3.51651 -3.36215,-2.06701 -6.84899,-2.60831 -12.14336,-1.88516 -2.05853,0.28118 -3.69092,0.61651 -8.01533,1.64657 -5.60198,1.33437 -7.18996,1.59338 -9.36817,1.52803 -1.17042,-0.0351 -1.73906,-0.1283 -2.5737,-0.42175 -1.64125,-0.57702 -2.73541,-1.76755 -3.21908,-3.5026 -0.14625,-0.52462 -0.15372,-0.61361 -0.15491,-1.84645 -10e-4,-1.24724 0.005,-1.32603 0.1795,-2.12456 0.63506,-2.91356 2.07365,-6.01928 4.25261,-9.1808 1.57296,-2.28226 3.18374,-4.15911 5.29701,-6.17196 1.23052,-1.17206 2.27407,-2.01616 3.36974,-2.72571 2.62911,-1.70261 4.83193,-1.93138 4.83193,-0.50182 0,0.37175 -0.0932,0.53167 -0.30983,0.53167 -0.28889,0 -0.8399,0.15998 -1.06107,0.30807 -0.63265,0.4236 -1.09092,1.08814 -1.17492,1.70374 -0.24226,1.77552 1.53411,1.79673 2.76935,0.0331 0.31577,-0.45086 0.7771,-1.38742 0.884,-1.79465 0.24609,-0.9374 -0.0205,-1.90729 -0.69144,-2.51582 -0.60264,-0.54656 -1.09934,-0.7109 -2.14763,-0.71056 -1.58117,4.2e-4 -3.40005,0.49684 -5.34582,1.45873 -3.50636,1.73338 -7.5035,5.10903 -10.33801,8.73061 -2.94323,3.76049 -4.64108,7.61198 -5.04154,11.43646 -0.10009,0.95582 -0.0417,2.66227 0.11523,3.36998 0.43964,1.98212 1.42643,3.44203 3.01501,4.46054 0.54958,0.35236 1.01586,0.56619 1.75363,0.80417 1.0973,0.35397 1.54299,0.41257 3.10567,0.40836 2.01342,-0.005 2.89289,-0.15014 7.5037,-1.23475 1.53201,-0.36037 3.20756,-0.74218 3.72343,-0.84846 3.4825,-0.71746 6.3119,-0.87622 8.38483,-0.47049 2.0496,0.40117 3.70114,1.39139 4.64693,2.7862 l 0.23404,0.34516 0.4518,-0.46822 c 0.71369,-0.73961 1.38084,-1.14773 2.35304,-1.43943 0.48411,-0.14525 0.54264,-0.15004 1.83594,-0.15027 1.13235,-2e-4 1.44415,0.0185 2.04649,0.12271 1.88359,0.32588 3.55891,0.93539 5.00244,1.81998 0.29702,0.18201 0.54968,0.32175 0.56145,0.31054 0.0118,-0.0112 -0.0851,-0.14379 -0.21539,-0.29462 z m 20.74391,-0.55949 c 0.81195,-0.25744 1.75707,-0.79989 2.78546,-1.59871 0.7177,-0.55748 2.26838,-2.04851 2.80589,-2.69795 0.48791,-0.58951 1.3446,-1.83285 1.96124,-2.8464 l 0.47423,-0.77948 0.43481,-0.0383 c 0.23914,-0.0211 0.62666,-0.0734 0.86115,-0.11618 0.23449,-0.0428 0.43548,-0.0779 0.44664,-0.0779 0.0111,0 0.002,0.0434 -0.0208,0.0965 -0.0226,0.053 -0.23211,0.62972 -0.46562,1.28149 -1.09524,3.05698 -1.29407,4.83271 -0.66633,5.95101 0.19538,0.34807 0.45834,0.57893 0.87401,0.76732 0.27616,0.12517 0.38933,0.14295 0.91273,0.14337 0.59457,4.2e-4 0.60011,-8.3e-4 1.13692,-0.25333 0.77908,-0.36657 1.38466,-0.82555 2.4186,-1.83309 l 0.91277,-0.88946 -0.0485,0.35826 c -0.0267,0.19705 -0.0335,0.50709 -0.0151,0.68898 0.13075,1.29515 0.81429,1.95877 2.01424,1.95552 0.91719,-0.002 1.99678,-0.57173 3.4579,-1.82331 l 0.6107,-0.52311 2.1e-4,0.66395 c 2.2e-4,0.73711 0.0843,1.01189 0.40278,1.31713 0.31021,0.2973 0.57188,0.38979 1.1034,0.39002 0.53762,2.1e-4 0.86398,-0.0858 1.50643,-0.39712 1.56769,-0.75969 3.64729,-2.70097 5.64221,-5.26699 0.64842,-0.83405 1.60568,-2.17596 1.60568,-2.25089 0,-0.025 -0.25448,-0.0455 -0.56552,-0.0455 h -0.56553 l -0.5448,0.744 c -1.74415,2.38178 -3.44073,4.04284 -4.28641,4.19666 -0.39287,0.0715 -0.48504,-0.1371 -0.28994,-0.65597 0.0684,-0.18199 0.86712,-1.54914 1.77483,-3.0381 2.85326,-4.68036 5.05235,-8.30916 5.08419,-8.38957 0.0259,-0.0655 -0.22501,-0.0775 -1.61729,-0.0775 h -1.64794 l -0.24111,0.35879 -0.24108,0.3588 -0.33728,-0.35689 c -0.23771,-0.25153 -0.44925,-0.41032 -0.71666,-0.53792 -0.34694,-0.16557 -0.42079,-0.18024 -0.86366,-0.17153 -1.51518,0.0298 -3.22308,1.03867 -5.20666,3.0756 -0.38456,0.39491 -0.86996,0.91644 -1.07864,1.15896 -0.84671,0.98397 -2.46725,3.165 -3.89059,5.23621 -0.8032,1.1688 -1.27965,1.76258 -1.90506,2.37422 -0.67689,0.66199 -1.09592,0.9002 -1.43802,0.81748 -0.25614,-0.0619 -0.44513,-0.31623 -0.50035,-0.67326 -0.13792,-0.89179 0.56416,-3.13106 1.75167,-5.58687 l 0.28438,-0.58811 0.57647,-0.3708 c 1.36216,-0.87617 3.13932,-2.23955 4.54904,-3.48988 1.19671,-1.0614 4.338,-4.15735 5.20748,-5.13235 1.10331,-1.23717 2.77389,-3.28217 2.7222,-3.3323 -0.0127,-0.0122 -0.29123,0.005 -0.61908,0.0386 l -0.59606,0.0609 -0.6368,0.77583 c -1.33664,1.62843 -2.5188,2.90023 -4.30798,4.63461 -2.33986,2.2682 -4.54806,4.10444 -5.7649,4.79382 -0.19505,0.11051 1.66609,-3.10277 2.96845,-5.12506 2.52174,-3.91574 4.96487,-6.95348 7.72136,-9.60066 1.44872,-1.39127 2.36986,-2.12767 3.13058,-2.50273 0.52847,-0.26056 0.78325,-0.19515 0.78325,0.20108 0,0.26313 -0.38975,1.28713 -0.76829,2.01856 -0.20276,0.39175 -0.36863,0.7234 -0.36863,0.737 0,0.0545 0.21978,0.0177 0.72575,-0.1215 0.60421,-0.16625 0.57119,-0.12985 0.95637,-1.05377 0.55714,-1.33636 0.64228,-2.46574 0.21378,-2.83529 -0.24126,-0.20807 -0.63055,-0.32383 -1.09228,-0.32481 -1.52825,-0.003 -3.545,1.19376 -6.53954,3.88149 -1.72099,1.54465 -4.10561,4.06936 -5.94435,6.29355 -1.81589,2.19656 -3.98282,5.58773 -6.014,9.41172 l -0.6955,1.30939 -0.42886,0.13298 c -0.50979,0.15807 -1.11512,0.27115 -1.22758,0.22931 -0.0652,-0.0242 -0.0537,-0.0812 0.0604,-0.29956 0.83032,-1.58875 1.34569,-3.58999 1.17756,-4.57258 -0.15959,-0.93267 -0.70762,-1.46502 -1.6615,-1.61397 -1.97907,-0.30903 -5.39331,2.07652 -8.19994,5.72931 -1.62172,2.11066 -2.67919,4.27442 -3.03126,6.20248 -0.11263,0.61681 -0.12364,1.55617 -0.023,1.963 0.21351,0.86315 0.78079,1.45606 1.58096,1.65242 0.31325,0.0769 1.01256,0.0225 1.4356,-0.11166 z m 1.44676,-2.99624 c -0.15742,-0.0665 -0.47681,-0.37347 -0.48285,-0.4641 -0.001,-0.0204 -0.0251,-0.14872 -0.0527,-0.28514 -0.19019,-0.9385 0.73248,-3.17556 2.09146,-5.07085 0.67946,-0.94761 1.16738,-1.59842 1.19829,-1.59833 0.0188,6e-5 0.11063,0.11787 0.20414,0.26181 0.40046,0.61644 1.24274,1.33351 2.14647,1.82739 0.17977,0.0983 0.32686,0.20992 0.32686,0.24816 0,0.1703 -1.11349,1.82434 -1.784,2.65006 -0.55674,0.6856 -1.65657,1.74856 -2.1086,2.03792 -0.66404,0.42505 -1.16211,0.55226 -1.53903,0.39308 z m 17.88097,0.0317 c -0.76248,-0.14122 -0.36753,-1.64231 1.07656,-4.09173 1.2334,-2.09205 2.76233,-4.05634 4.24679,-5.45609 1.0609,-1.00033 1.79122,-1.37947 2.327,-1.20802 0.20574,0.0658 0.37158,0.29329 0.32045,0.43949 -0.0687,0.19642 -2.3287,3.88109 -3.48213,5.67715 -1.55177,2.41636 -2.76676,3.94158 -3.56296,4.47272 -0.27206,0.1815 -0.56256,0.23375 -0.92571,0.16648 z m -12.46114,-6.40533 c -0.48178,-0.24115 -1.03134,-0.76571 -1.24681,-1.19007 -0.23392,-0.46071 -0.2828,-1.01479 -0.13085,-1.48319 0.22293,-0.68719 1.06282,-1.53035 1.78739,-1.79432 0.41285,-0.15041 0.86969,-0.15494 1.07066,-0.0106 0.76512,0.54943 0.66399,1.88839 -0.28317,3.74894 -0.37887,0.74424 -0.40977,0.78698 -0.60754,0.84024 -0.26044,0.0701 -0.2082,0.08 -0.58968,-0.11098 z m -18.4628,9.29608 c 1.48285,-0.32852 2.91957,-1.03829 4.37673,-2.16222 0.66421,-0.51231 1.97562,-1.79786 2.58002,-2.52915 1.76824,-2.13945 3.04539,-4.65111 3.47978,-6.84335 0.11817,-0.59634 0.13304,-1.64528 0.0292,-2.0582 -0.32515,-1.29281 -1.34043,-1.94544 -2.65767,-1.70838 -1.37401,0.24727 -2.67758,0.97019 -3.91861,2.17312 -1.22411,1.18653 -1.92141,2.3356 -2.70289,4.45406 -0.34845,0.94458 -0.67507,2.29403 -0.67528,2.78993 l -8e-5,0.18513 0.49741,-0.45719 c 1.12763,-1.03648 2.16438,-1.77664 3.2506,-2.32066 l 0.58675,-0.29387 0.10386,-0.3877 c 0.68319,-2.55027 2.18836,-4.45926 3.57592,-4.53528 0.34489,-0.0189 0.39205,-0.008 0.56575,0.134 0.46099,0.3761 0.50497,1.18346 0.13887,2.54965 -0.55291,2.06332 -1.91847,4.26755 -3.8588,6.22868 -1.9945,2.01589 -3.66767,2.80727 -5.19651,2.45785 -1.01556,-0.2321 -1.70056,-0.96688 -1.9606,-2.10308 -0.11686,-0.51063 -0.11818,-1.5586 -0.003,-2.2004 0.38955,-2.16617 1.3432,-4.73548 2.5901,-6.97822 1.23414,-2.21978 3.29801,-5.17209 5.01054,-7.16742 3.71861,-4.3327 8.33494,-7.82237 10.92239,-8.25666 0.36194,-0.0608 0.99458,-0.041 1.12148,0.0351 0.0297,0.0178 -0.2755,0.25394 -0.67829,0.52471 -1.5694,1.05503 -3.12829,2.38663 -4.05904,3.46722 -1.16796,1.35599 -2.1759,3.16882 -2.46117,4.42656 -0.0683,0.30087 -0.0908,0.59131 -0.0749,0.96456 0.0197,0.46276 0.045,0.57346 0.18931,0.82925 0.62775,1.11266 2.20807,1.08877 3.94013,-0.0596 0.95175,-0.631 2.32142,-2.14032 3.24813,-3.57931 0.8358,-1.29781 1.51653,-2.87661 1.73614,-4.0266 0.0942,-0.49308 0.13497,-1.31393 0.0869,-1.74847 l -0.0271,-0.24477 0.28288,-0.0725 c 0.40932,-0.10491 1.49933,-0.099 2.0451,0.0111 0.62187,0.12547 1.38532,0.40971 2.3256,0.86585 0.99014,0.48033 1.27458,0.64687 3.27376,1.91693 0.89106,0.56608 1.7736,1.11756 1.96119,1.22552 0.56287,0.32391 1.28934,0.70399 1.34559,0.70399 0.029,0 0.27451,-0.22943 0.54561,-0.50984 0.27108,-0.28041 0.82454,-0.83804 1.2299,-1.23917 0.40536,-0.40113 0.7259,-0.73769 0.71232,-0.74791 -0.0135,-0.0102 -0.38914,-0.2091 -0.83453,-0.44195 -0.44541,-0.23284 -1.34072,-0.72879 -1.98962,-1.1021 -2.34546,-1.34938 -3.21503,-1.77795 -4.32363,-2.13091 -0.90382,-0.28777 -1.48139,-0.38907 -2.4306,-0.42632 -1.34557,-0.0528 -2.70867,0.13742 -4.04892,0.56503 l -0.75533,0.24099 -0.29632,-0.21749 c -0.94221,-0.69153 -2.65084,-0.7965 -4.46378,-0.27424 -1.68677,0.48591 -4.02527,1.62299 -5.86592,2.85227 -3.82896,2.55717 -7.2137,5.96042 -10.20059,10.2564 -1.93183,2.77851 -3.10288,4.97271 -3.88822,7.28544 -0.8353,2.45983 -0.99589,4.71055 -0.46076,6.45774 0.57584,1.88013 2.02318,3.12557 3.91932,3.37261 0.44585,0.0581 1.57276,-0.0206 2.16059,-0.1508 z m 12.0794,-19.04409 c -0.15758,-0.0673 -0.35027,-0.27883 -0.42256,-0.46383 -0.24153,-0.61808 0.29753,-2.0568 1.32231,-3.52916 1.43352,-2.05961 3.37106,-3.84182 5.28018,-4.85685 l 0.38161,-0.2029 0.0384,0.14846 c 0.0678,0.26189 -0.0314,1.15962 -0.19887,1.80028 -0.42747,1.6351 -1.29275,3.27155 -2.41045,4.55876 -1.31012,1.5088 -2.72841,2.53557 -3.56071,2.57778 -0.17393,0.009 -0.36741,-0.006 -0.42994,-0.0325 z m 29.08931,19.11799 c 0.28279,-0.0761 0.54921,-0.30219 0.67655,-0.57403 0.46373,-0.98987 -0.73965,-1.92993 -1.6288,-1.27237 -0.67891,0.50208 -0.51078,1.54508 0.29388,1.82321 0.26798,0.0926 0.38519,0.0968 0.65837,0.0232 z m -0.75725,-0.28702 c -0.26633,-0.1711 -0.46807,-0.57545 -0.41752,-0.83678 0.11568,-0.59781 0.74865,-0.9179 1.27691,-0.64572 0.59411,0.30611 0.61811,1.15623 0.0423,1.49666 -0.25681,0.15182 -0.65298,0.1456 -0.90165,-0.0142 z m 0.23318,-0.37196 c 0,-0.1967 0.0148,-0.22048 0.13807,-0.22048 0.17661,0 0.31671,0.13585 0.31671,0.30709 0,0.1075 0.0292,0.13386 0.14818,0.13386 0.11179,0 0.13972,-0.0214 0.1137,-0.0872 -0.0189,-0.048 -0.0345,-0.13299 -0.0345,-0.18897 0,-0.056 -0.0402,-0.14077 -0.0893,-0.18841 -0.0491,-0.0476 -0.066,-0.0866 -0.0375,-0.0866 0.0976,0 0.17555,-0.2479 0.11376,-0.3618 -0.10293,-0.1898 -0.22961,-0.2445 -0.56622,-0.2445 h -0.3302 v 0.57874 c 0,0.54199 0.007,0.57874 0.11367,0.57874 0.0947,0 0.1137,-0.0368 0.1137,-0.22047 z m 0,-0.57874 c 0,-0.15822 0.0211,-0.19292 0.11744,-0.19292 0.14127,0 0.33734,0.095 0.33734,0.16336 0,0.0957 -0.18045,0.22247 -0.31671,0.22247 -0.11989,0 -0.13807,-0.0254 -0.13807,-0.19291 z m -68.60422,-6.22376 c 1.57102,-0.29416 3.52947,-1.49963 5.54577,-3.41352 0.25698,-0.24393 0.47897,-0.43213 0.49332,-0.41821 0.0144,0.0139 -0.0399,0.26063 -0.12052,0.54828 -0.12274,0.43786 -0.14752,0.64856 -0.15224,1.29463 -0.005,0.72267 0.004,0.79089 0.14223,1.0748 0.26536,0.54397 0.62265,0.78586 1.31492,0.89021 1.1134,0.16783 2.53088,-0.46625 3.99474,-1.78696 l 0.45506,-0.41056 0.003,0.52964 c 0.003,0.44685 0.0257,0.57702 0.14759,0.83279 0.2878,0.60411 0.70584,0.84883 1.44036,0.84319 1.20405,-0.009 2.70543,-0.94301 4.69096,-2.91748 0.79613,-0.7917 1.77055,-1.86953 2.50974,-2.77609 0.60723,-0.74472 1.46835,-1.88049 1.46835,-1.93668 0,-0.0262 -0.2622,-0.0464 -0.58267,-0.0449 l -0.58268,0.003 -0.43441,0.53477 c -1.51799,1.86869 -3.12519,3.45715 -3.90645,3.8609 -0.37077,0.19161 -0.71245,0.23011 -0.76922,0.0867 -0.0618,-0.15615 -0.0366,-0.40245 0.0686,-0.6701 0.0567,-0.14432 1.62996,-2.73375 3.49605,-5.7543 1.86609,-3.02055 3.39289,-5.51946 3.39289,-5.55313 0,-0.0435 -0.46935,-0.0612 -1.61739,-0.0612 h -1.61739 l -0.18248,0.26181 c -0.10037,0.144 -0.1863,0.26747 -0.19097,0.27438 -0.005,0.007 -0.1431,-0.10997 -0.30764,-0.25974 -0.16453,-0.14978 -0.44435,-0.34146 -0.62182,-0.42596 -0.81941,-0.39016 -2.1501,-0.0577 -3.60036,0.89947 -1.71838,1.13415 -3.38759,2.85423 -5.95819,6.13979 -1.45555,1.86038 -2.10145,2.59581 -3.29435,3.75092 -1.16252,1.12571 -1.81648,1.63332 -2.59087,2.01109 -0.94424,0.46061 -1.58982,0.44348 -2.10481,-0.0558 -0.74755,-0.72483 -0.49798,-2.2285 0.76869,-4.63136 1.15918,-2.19895 2.25703,-3.67395 3.80091,-5.10665 0.7235,-0.6714 1.38262,-1.16061 1.91914,-1.42441 0.53111,-0.26115 1.21011,-0.20878 1.38428,0.10676 0.067,0.12139 0.0775,0.6085 0.015,0.69409 -0.023,0.0315 -0.21634,0.0854 -0.4297,0.11977 -0.72144,0.11641 -1.28513,0.57657 -1.70092,1.38854 -0.22171,0.43295 -0.27715,0.9386 -0.13262,1.20959 0.22645,0.42458 0.82154,0.58308 1.34036,0.35699 1.03957,-0.45301 2.18168,-2.47552 2.08657,-3.69497 -0.10229,-1.31137 -1.31332,-2.1153 -2.85986,-1.89849 -0.84653,0.11868 -1.55756,0.41383 -2.53059,1.05048 -0.70974,0.46437 -1.26154,0.9081 -2.46237,1.98013 -1.70492,1.52205 -2.41205,2.05051 -3.28841,2.4575 -0.40616,0.18863 -0.92954,0.3464 -0.98162,0.29591 -0.0148,-0.0144 0.038,-0.16866 0.11746,-0.34283 0.47514,-1.04171 0.82342,-2.38371 0.82342,-3.1728 0,-1.08696 -0.36526,-1.7369 -1.18873,-2.11523 -0.36055,-0.16565 -0.40214,-0.17201 -1.11354,-0.17038 -0.65821,10e-4 -0.78814,0.0184 -1.18848,0.15409 -1.70253,0.57721 -3.65127,2.01251 -5.49339,4.04604 -2.77394,3.06215 -4.37712,6.20502 -4.37389,8.57456 0.002,1.32865 0.41421,2.11044 1.34989,2.55896 0.37389,0.17922 0.49787,0.21056 0.89826,0.22705 1.06637,0.0439 2.41143,-0.58881 4.04253,-1.9017 0.71888,-0.57864 2.26821,-2.10994 2.77651,-2.7442 0.34657,-0.43246 1.24494,-1.72199 2.32964,-3.34402 l 0.34108,-0.51003 0.59689,-0.12971 c 0.32829,-0.0713 0.66711,-0.14428 0.75293,-0.16209 l 0.15605,-0.0324 -0.28808,0.51668 c -1.32813,2.38197 -1.78393,3.70405 -1.78384,5.17415 8e-5,1.11968 0.24618,1.76239 0.90291,2.35801 0.77817,0.70575 1.77441,0.96851 2.88417,0.76072 z m 10.29579,-3.04694 c -0.37603,-0.0358 -0.49147,-0.21553 -0.45327,-0.70565 0.0871,-1.11765 1.33544,-3.37939 3.19427,-5.78739 1.68589,-2.18397 2.79145,-3.43243 3.49336,-3.94488 0.66394,-0.48473 1.34052,-0.63324 1.6256,-0.35683 0.0768,0.0744 0.13954,0.17581 0.13954,0.22533 0,0.15588 -2.67961,4.56246 -3.99809,6.5748 -1.21982,1.86174 -2.44307,3.33658 -3.13881,3.78435 -0.32328,0.20805 -0.48135,0.24659 -0.8626,0.21027 z m -20.63931,-0.18991 c -0.31271,-0.19415 -0.43546,-0.49282 -0.42716,-1.03937 0.0141,-0.92998 0.53707,-2.28375 1.44797,-3.7485 0.40684,-0.6542 1.80845,-2.64576 1.86084,-2.64409 0.0188,6.3e-4 0.11097,0.1275 0.20476,0.28199 0.36668,0.60394 1.31959,1.26654 2.3307,1.62062 0.44242,0.15493 0.45044,0.16828 0.27647,0.46006 -0.31741,0.53234 -1.44159,2.14797 -1.8058,2.59523 -1.32093,1.62214 -2.58852,2.59355 -3.3813,2.59124 -0.22642,-6.2e-4 -0.37367,-0.0347 -0.50648,-0.11718 z m 5.74756,-6.54782 c -0.71887,-0.25091 -1.21006,-0.60475 -1.46919,-1.05837 -0.15004,-0.26265 -0.16873,-0.34738 -0.16873,-0.76502 0,-0.42216 0.0196,-0.50857 0.19352,-0.85433 0.25884,-0.51453 0.90591,-1.14045 1.44221,-1.3951 0.95491,-0.45339 1.58584,-0.20131 1.75927,0.70289 0.1252,0.65277 -0.12223,1.68225 -0.6813,2.83468 -0.33326,0.68697 -0.46018,0.75012 -1.07578,0.53525 z m 31.79434,-3.97184 c 0.4766,-0.74271 0.86832,-1.36938 0.8705,-1.3926 0.002,-0.0232 -0.70516,-0.0356 -1.57185,-0.0276 l -1.57582,0.0147 -0.86075,1.35039 c -0.47341,0.74271 -0.84972,1.36939 -0.83624,1.39261 0.0135,0.0232 0.71822,0.0356 1.56608,0.0276 l 1.54155,-0.0147 z m 38.6488,-1.10403 c 2.08378,-0.18893 4.03406,-0.88359 6.00341,-2.13832 1.96648,-1.25291 3.57336,-2.81073 4.94517,-4.79416 0.4633,-0.66985 0.79018,-1.21362 0.79018,-1.31447 0,-0.0218 -0.24942,0.19533 -0.55425,0.4826 -2.25561,2.12556 -5.03089,3.74526 -7.68846,4.48708 -1.12862,0.31503 -1.87433,0.42366 -3.04127,0.44301 l -1.02324,0.017 -0.5989,0.62803 c -0.84454,0.88565 -1.8129,1.98754 -1.78503,2.03123 0.0198,0.0311 0.39202,0.0825 1.30385,0.18006 0.37971,0.0406 1.05759,0.0315 1.64854,-0.022 z"
       id="path1" /></g></svg>
